<mxfile host="65bd71144e">
    <diagram name="Page-1" id="2YBvvXClWsGukQMizWep">
        <mxGraphModel dx="1329" dy="568" grid="1" gridSize="10" guides="1" tooltips="1" connect="1" arrows="1" fold="1" page="1" pageScale="1" pageWidth="850" pageHeight="1100" math="0" shadow="0">
            <root>
                <mxCell id="0"/>
                <mxCell id="1" parent="0"/>
                <mxCell id="aM9ryv3xv72pqoxQDRHE-5" value=":UI" style="shape=umlLifeline;perimeter=lifelinePerimeter;whiteSpace=wrap;html=1;container=0;dropTarget=0;collapsible=0;recursiveResize=0;outlineConnect=0;portConstraint=eastwest;newEdgeStyle={&quot;edgeStyle&quot;:&quot;elbowEdgeStyle&quot;,&quot;elbow&quot;:&quot;vertical&quot;,&quot;curved&quot;:0,&quot;rounded&quot;:0};" parent="1" vertex="1">
                    <mxGeometry x="220" y="40" width="100" height="400" as="geometry"/>
                </mxCell>
                <mxCell id="PAPQqsJMQdGMUSHLwfSt-8" value="" style="html=1;points=[[0,0,0,0,5],[0,1,0,0,-5],[1,0,0,0,5],[1,1,0,0,-5]];perimeter=orthogonalPerimeter;outlineConnect=0;targetShapes=umlLifeline;portConstraint=eastwest;newEdgeStyle={&quot;curved&quot;:0,&quot;rounded&quot;:0};" parent="aM9ryv3xv72pqoxQDRHE-5" vertex="1">
                    <mxGeometry x="45" y="70" width="10" height="290" as="geometry"/>
                </mxCell>
                <mxCell id="aM9ryv3xv72pqoxQDRHE-7" value="Tap &quot;Report Incident&quot;" style="html=1;verticalAlign=bottom;endArrow=block;edgeStyle=elbowEdgeStyle;elbow=vertical;curved=0;rounded=0;" parent="1" edge="1" source="5">
                    <mxGeometry relative="1" as="geometry">
                        <mxPoint x="95" y="120" as="sourcePoint"/>
                        <Array as="points">
                            <mxPoint x="180" y="120"/>
                        </Array>
                        <mxPoint x="265" y="120" as="targetPoint"/>
                    </mxGeometry>
                </mxCell>
                <mxCell id="aM9ryv3xv72pqoxQDRHE-9" value="Prompt for incident type" style="html=1;verticalAlign=bottom;endArrow=block;edgeStyle=elbowEdgeStyle;elbow=vertical;curved=0;rounded=0;" parent="1" edge="1" target="5">
                    <mxGeometry relative="1" as="geometry">
                        <mxPoint x="265" y="150" as="sourcePoint"/>
                        <Array as="points">
                            <mxPoint x="190" y="150"/>
                        </Array>
                        <mxPoint x="100" y="150" as="targetPoint"/>
                    </mxGeometry>
                </mxCell>
                <mxCell id="KaihL9I_P3rSQ9p7ENMB-1" value=":Incident Manager" style="shape=umlLifeline;perimeter=lifelinePerimeter;whiteSpace=wrap;html=1;container=0;dropTarget=0;collapsible=0;recursiveResize=0;outlineConnect=0;portConstraint=eastwest;newEdgeStyle={&quot;edgeStyle&quot;:&quot;elbowEdgeStyle&quot;,&quot;elbow&quot;:&quot;vertical&quot;,&quot;curved&quot;:0,&quot;rounded&quot;:0};" parent="1" vertex="1">
                    <mxGeometry x="400" y="40" width="100" height="400" as="geometry"/>
                </mxCell>
                <mxCell id="PAPQqsJMQdGMUSHLwfSt-7" value="" style="html=1;points=[[0,0,0,0,5],[0,1,0,0,-5],[1,0,0,0,5],[1,1,0,0,-5]];perimeter=orthogonalPerimeter;outlineConnect=0;targetShapes=umlLifeline;portConstraint=eastwest;newEdgeStyle={&quot;curved&quot;:0,&quot;rounded&quot;:0};" parent="KaihL9I_P3rSQ9p7ENMB-1" vertex="1">
                    <mxGeometry x="45" y="140" width="10" height="160" as="geometry"/>
                </mxCell>
                <mxCell id="KaihL9I_P3rSQ9p7ENMB-3" value=":Incident DS&lt;span style=&quot;white-space: pre;&quot;&gt;&#x9;&lt;/span&gt;" style="shape=umlLifeline;perimeter=lifelinePerimeter;whiteSpace=wrap;html=1;container=0;dropTarget=0;collapsible=0;recursiveResize=0;outlineConnect=0;portConstraint=eastwest;newEdgeStyle={&quot;edgeStyle&quot;:&quot;elbowEdgeStyle&quot;,&quot;elbow&quot;:&quot;vertical&quot;,&quot;curved&quot;:0,&quot;rounded&quot;:0};" parent="1" vertex="1">
                    <mxGeometry x="580" y="40" width="100" height="400" as="geometry"/>
                </mxCell>
                <mxCell id="PAPQqsJMQdGMUSHLwfSt-6" value="" style="html=1;points=[[0,0,0,0,5],[0,1,0,0,-5],[1,0,0,0,5],[1,1,0,0,-5]];perimeter=orthogonalPerimeter;outlineConnect=0;targetShapes=umlLifeline;portConstraint=eastwest;newEdgeStyle={&quot;curved&quot;:0,&quot;rounded&quot;:0};" parent="KaihL9I_P3rSQ9p7ENMB-3" vertex="1">
                    <mxGeometry x="45" y="190" width="10" height="60" as="geometry"/>
                </mxCell>
                <mxCell id="KaihL9I_P3rSQ9p7ENMB-5" value=":Map Renderer&lt;span style=&quot;white-space: pre;&quot;&gt;&#x9;&lt;/span&gt;" style="shape=umlLifeline;perimeter=lifelinePerimeter;whiteSpace=wrap;html=1;container=0;dropTarget=0;collapsible=0;recursiveResize=0;outlineConnect=0;portConstraint=eastwest;newEdgeStyle={&quot;edgeStyle&quot;:&quot;elbowEdgeStyle&quot;,&quot;elbow&quot;:&quot;vertical&quot;,&quot;curved&quot;:0,&quot;rounded&quot;:0};" parent="1" vertex="1">
                    <mxGeometry x="760" y="40" width="100" height="400" as="geometry"/>
                </mxCell>
                <mxCell id="PAPQqsJMQdGMUSHLwfSt-4" value="" style="html=1;points=[[0,0,0,0,5],[0,1,0,0,-5],[1,0,0,0,5],[1,1,0,0,-5]];perimeter=orthogonalPerimeter;outlineConnect=0;targetShapes=umlLifeline;portConstraint=eastwest;newEdgeStyle={&quot;curved&quot;:0,&quot;rounded&quot;:0};" parent="KaihL9I_P3rSQ9p7ENMB-5" vertex="1">
                    <mxGeometry x="45" y="260" width="10" height="80" as="geometry"/>
                </mxCell>
                <mxCell id="KaihL9I_P3rSQ9p7ENMB-7" value="Submit incident" style="html=1;verticalAlign=bottom;endArrow=block;edgeStyle=elbowEdgeStyle;elbow=vertical;curved=0;rounded=0;" parent="1" edge="1">
                    <mxGeometry relative="1" as="geometry">
                        <mxPoint x="90" y="180.00000000000006" as="sourcePoint"/>
                        <Array as="points">
                            <mxPoint x="180" y="180"/>
                        </Array>
                        <mxPoint x="255" y="180.17000000000002" as="targetPoint"/>
                    </mxGeometry>
                </mxCell>
                <mxCell id="KaihL9I_P3rSQ9p7ENMB-8" value="Send incident to manager" style="html=1;verticalAlign=bottom;endArrow=block;edgeStyle=elbowEdgeStyle;elbow=vertical;curved=0;rounded=0;" parent="1" edge="1">
                    <mxGeometry relative="1" as="geometry">
                        <mxPoint x="280" y="210.00000000000006" as="sourcePoint"/>
                        <Array as="points">
                            <mxPoint x="370" y="210"/>
                        </Array>
                        <mxPoint x="445" y="210.17000000000002" as="targetPoint"/>
                    </mxGeometry>
                </mxCell>
                <mxCell id="KaihL9I_P3rSQ9p7ENMB-9" value="Store incident" style="html=1;verticalAlign=bottom;endArrow=block;edgeStyle=elbowEdgeStyle;elbow=vertical;curved=0;rounded=0;" parent="1" edge="1">
                    <mxGeometry relative="1" as="geometry">
                        <mxPoint x="460" y="250.00000000000006" as="sourcePoint"/>
                        <Array as="points">
                            <mxPoint x="550" y="250"/>
                        </Array>
                        <mxPoint x="625" y="250.17000000000002" as="targetPoint"/>
                    </mxGeometry>
                </mxCell>
                <mxCell id="KaihL9I_P3rSQ9p7ENMB-10" value="Confirm Storage" style="html=1;verticalAlign=bottom;endArrow=block;edgeStyle=elbowEdgeStyle;elbow=vertical;curved=0;rounded=0;" parent="1" edge="1">
                    <mxGeometry relative="1" as="geometry">
                        <mxPoint x="625" y="280" as="sourcePoint"/>
                        <Array as="points">
                            <mxPoint x="550" y="280"/>
                        </Array>
                        <mxPoint x="460" y="280" as="targetPoint"/>
                    </mxGeometry>
                </mxCell>
                <mxCell id="KaihL9I_P3rSQ9p7ENMB-11" value="Notify Map Renderer" style="html=1;verticalAlign=bottom;endArrow=block;edgeStyle=elbowEdgeStyle;elbow=vertical;curved=0;rounded=0;" parent="1" target="KaihL9I_P3rSQ9p7ENMB-5" edge="1">
                    <mxGeometry relative="1" as="geometry">
                        <mxPoint x="460" y="320.00000000000006" as="sourcePoint"/>
                        <Array as="points">
                            <mxPoint x="810" y="320"/>
                        </Array>
                        <mxPoint x="625" y="320.17" as="targetPoint"/>
                    </mxGeometry>
                </mxCell>
                <mxCell id="KaihL9I_P3rSQ9p7ENMB-12" value="Update Map" style="html=1;verticalAlign=bottom;endArrow=block;edgeStyle=elbowEdgeStyle;elbow=vertical;curved=0;rounded=0;" parent="1" target="aM9ryv3xv72pqoxQDRHE-5" edge="1">
                    <mxGeometry relative="1" as="geometry">
                        <mxPoint x="805" y="350" as="sourcePoint"/>
                        <Array as="points">
                            <mxPoint x="730" y="350"/>
                        </Array>
                        <mxPoint x="640" y="350" as="targetPoint"/>
                    </mxGeometry>
                </mxCell>
                <mxCell id="KaihL9I_P3rSQ9p7ENMB-13" value="Show confirmation" style="html=1;verticalAlign=bottom;endArrow=block;edgeStyle=elbowEdgeStyle;elbow=vertical;curved=0;rounded=0;entryX=1.5;entryY=0.931;entryDx=0;entryDy=0;entryPerimeter=0;" parent="1" edge="1" target="5">
                    <mxGeometry relative="1" as="geometry">
                        <mxPoint x="265" y="380" as="sourcePoint"/>
                        <Array as="points">
                            <mxPoint x="190" y="380"/>
                        </Array>
                        <mxPoint x="100" y="380" as="targetPoint"/>
                    </mxGeometry>
                </mxCell>
                <mxCell id="2" value="User" style="shape=umlActor;verticalLabelPosition=bottom;verticalAlign=top;html=1;outlineConnect=0;" vertex="1" parent="1">
                    <mxGeometry x="70" y="40" width="20" height="40" as="geometry"/>
                </mxCell>
                <mxCell id="3" value="" style="endArrow=none;dashed=1;html=1;" edge="1" parent="1" source="5">
                    <mxGeometry width="50" height="50" relative="1" as="geometry">
                        <mxPoint x="80" y="440" as="sourcePoint"/>
                        <mxPoint x="80" y="100" as="targetPoint"/>
                    </mxGeometry>
                </mxCell>
                <mxCell id="6" value="" style="endArrow=none;dashed=1;html=1;" edge="1" parent="1" target="5">
                    <mxGeometry width="50" height="50" relative="1" as="geometry">
                        <mxPoint x="80" y="440" as="sourcePoint"/>
                        <mxPoint x="80" y="100" as="targetPoint"/>
                    </mxGeometry>
                </mxCell>
                <mxCell id="5" value="" style="html=1;points=[[0,0,0,0,5],[0,1,0,0,-5],[1,0,0,0,5],[1,1,0,0,-5]];perimeter=orthogonalPerimeter;outlineConnect=0;targetShapes=umlLifeline;portConstraint=eastwest;newEdgeStyle={&quot;curved&quot;:0,&quot;rounded&quot;:0};" vertex="1" parent="1">
                    <mxGeometry x="75" y="110" width="10" height="290" as="geometry"/>
                </mxCell>
            </root>
        </mxGraphModel>
    </diagram>
</mxfile>